HIERARCHY
ROOT Hips
{
    OFFSET   0.000000   0.000000   0.000000
    CHANNELS 6 Xposition Yposition Zposition Zrotation Xrotation Yrotation
    JOINT Chest
    {
        OFFSET   0.000000   8.007230   0.000000
        CHANNELS 3 Zrotation Xrotation Yrotation
        JOINT Chest2
        {
            OFFSET   0.000000  22.077100   0.000000
            CHANNELS 3 Zrotation Xrotation Yrotation
            JOINT Neck
            {
                OFFSET   0.000000  23.255100   0.000000
                CHANNELS 3 Zrotation Xrotation Yrotation
                JOINT Head
                {
                    OFFSET   0.000000  14.370100   1.956600
                    CHANNELS 3 Zrotation Xrotation Yrotation
                    End Site
                    {
                        OFFSET   0.000000  19.566000   0.000000
                    }
                }
            }
            JOINT LeftCollar
            {
                OFFSET   3.911900  19.017000  -0.467063
                CHANNELS 3 Zrotation Xrotation Yrotation
                JOINT LeftShoulder
                {
                    OFFSET  10.383700   0.000000   0.000000
                    CHANNELS 3 Zrotation Xrotation Yrotation
                    JOINT LeftElbow
                    {
                        OFFSET  26.662100   0.001193   0.000980
                        CHANNELS 3 Zrotation Xrotation Yrotation
                        JOINT LeftWrist
                        {
                            OFFSET  28.869000  -0.000059  -0.000082
                            CHANNELS 3 Zrotation Xrotation Yrotation
                            JOINT LeftFinger0
                            {
                                OFFSET   2.044650  -2.323450   3.252850
                                CHANNELS 3 Zrotation Xrotation Yrotation
                                JOINT LeftFinger01
                                {
                                    OFFSET   3.088130   0.000000   0.000000
                                    CHANNELS 3 Zrotation Xrotation Yrotation
                                    JOINT LeftFinger02
                                    {
                                        OFFSET   2.639460   0.000000   0.000000
                                        CHANNELS 3 Zrotation Xrotation Yrotation
                                        End Site
                                        {
                                            OFFSET   2.582190   0.000000   0.000000
                                        }
                                    }
                                }
                            }
                            JOINT LeftFinger1
                            {
                                OFFSET   8.364480   0.000000   3.252850
                                CHANNELS 3 Zrotation Xrotation Yrotation
                                JOINT LeftFinger11
                                {
                                    OFFSET   4.646930   0.000000   0.000000
                                    CHANNELS 3 Zrotation Xrotation Yrotation
                                    JOINT LeftFinger12
                                    {
                                        OFFSET   2.323470   0.000000   0.000000
                                        CHANNELS 3 Zrotation Xrotation Yrotation
                                        End Site
                                        {
                                            OFFSET   2.273050   0.000000   0.000000
                                        }
                                    }
                                }
                            }
                            JOINT LeftFinger2
                            {
                                OFFSET   8.364490   0.000016   1.078090
                                CHANNELS 3 Zrotation Xrotation Yrotation
                                JOINT LeftFinger21
                                {
                                    OFFSET   5.111610   0.000000   0.000000
                                    CHANNELS 3 Zrotation Xrotation Yrotation
                                    JOINT LeftFinger22
                                    {
                                        OFFSET   2.788150   0.000016   0.000000
                                        CHANNELS 3 Zrotation Xrotation Yrotation
                                        End Site
                                        {
                                            OFFSET   2.727660   0.000000   0.000000
                                        }
                                    }
                                }
                            }
                            JOINT LeftFinger3
                            {
                                OFFSET   7.899780   0.000015  -1.078090
                                CHANNELS 3 Zrotation Xrotation Yrotation
                                JOINT LeftFinger31
                                {
                                    OFFSET   4.646930   0.000000   0.000000
                                    CHANNELS 3 Zrotation Xrotation Yrotation
                                    JOINT LeftFinger32
                                    {
                                        OFFSET   2.323470   0.000000   0.000000
                                        CHANNELS 3 Zrotation Xrotation Yrotation
                                        End Site
                                        {
                                            OFFSET   2.273050   0.000000   0.000000
                                        }
                                    }
                                }
                            }
                            JOINT LeftFinger4
                            {
                                OFFSET   7.435090   0.000000  -3.252850
                                CHANNELS 3 Zrotation Xrotation Yrotation
                                JOINT LeftFinger41
                                {
                                    OFFSET   3.717550   0.000000   0.000000
                                    CHANNELS 3 Zrotation Xrotation Yrotation
                                    JOINT LeftFinger42
                                    {
                                        OFFSET   1.858770   0.000000   0.000000
                                        CHANNELS 3 Zrotation Xrotation Yrotation
                                        End Site
                                        {
                                            OFFSET   1.818440   0.000000   0.000000
                                        }
                                    }
                                }
                            }
                        }
                    }
                }
            }
            JOINT RightCollar
            {
                OFFSET  -3.911910  19.017000  -0.467062
                CHANNELS 3 Zrotation Xrotation Yrotation
                JOINT RightShoulder
                {
                    OFFSET -10.383700   0.000014   0.000000
                    CHANNELS 3 Zrotation Xrotation Yrotation
                    JOINT RightElbow
                    {
                        OFFSET -26.662100   0.001225   0.001091
                        CHANNELS 3 Zrotation Xrotation Yrotation
                        JOINT RightWrist
                        {
                            OFFSET -28.869000  -0.000020  -0.000085
                            CHANNELS 3 Zrotation Xrotation Yrotation
                            JOINT RightFinger0
                            {
                                OFFSET  -2.044650  -2.323490   3.252850
                                CHANNELS 3 Zrotation Xrotation Yrotation
                                JOINT RightFinger01
                                {
                                    OFFSET  -3.088130   0.000000   0.000000
                                    CHANNELS 3 Zrotation Xrotation Yrotation
                                    JOINT RightFinger02
                                    {
                                        OFFSET  -2.639460   0.000000   0.000000
                                        CHANNELS 3 Zrotation Xrotation Yrotation
                                        End Site
                                        {
                                            OFFSET  -2.582190   0.000000   0.000000
                                        }
                                    }
                                }
                            }
                            JOINT RightFinger1
                            {
                                OFFSET  -8.364480   0.000000   3.252850
                                CHANNELS 3 Zrotation Xrotation Yrotation
                                JOINT RightFinger11
                                {
                                    OFFSET  -4.646930   0.000000   0.000000
                                    CHANNELS 3 Zrotation Xrotation Yrotation
                                    JOINT RightFinger12
                                    {
                                        OFFSET  -2.323470   0.000000   0.000000
                                        CHANNELS 3 Zrotation Xrotation Yrotation
                                        End Site
                                        {
                                            OFFSET  -2.273050   0.000000   0.000000
                                        }
                                    }
                                }
                            }
                            JOINT RightFinger2
                            {
                                OFFSET  -8.364480   0.000000   1.078090
                                CHANNELS 3 Zrotation Xrotation Yrotation
                                JOINT RightFinger21
                                {
                                    OFFSET  -5.111620   0.000000   0.000000
                                    CHANNELS 3 Zrotation Xrotation Yrotation
                                    JOINT RightFinger22
                                    {
                                        OFFSET  -2.788160   0.000000   0.000000
                                        CHANNELS 3 Zrotation Xrotation Yrotation
                                        End Site
                                        {
                                            OFFSET  -2.727660   0.000000   0.000000
                                        }
                                    }
                                }
                            }
                            JOINT RightFinger3
                            {
                                OFFSET  -7.899780   0.000000  -1.078090
                                CHANNELS 3 Zrotation Xrotation Yrotation
                                JOINT RightFinger31
                                {
                                    OFFSET  -4.646930   0.000000   0.000000
                                    CHANNELS 3 Zrotation Xrotation Yrotation
                                    JOINT RightFinger32
                                    {
                                        OFFSET  -2.323470   0.000000   0.000000
                                        CHANNELS 3 Zrotation Xrotation Yrotation
                                        End Site
                                        {
                                            OFFSET  -2.273050   0.000000   0.000000
                                        }
                                    }
                                }
                            }
                            JOINT RightFinger4
                            {
                                OFFSET  -7.435090   0.000000  -3.252850
                                CHANNELS 3 Zrotation Xrotation Yrotation
                                JOINT RightFinger41
                                {
                                    OFFSET  -3.717550   0.000000   0.000000
                                    CHANNELS 3 Zrotation Xrotation Yrotation
                                    JOINT RightFinger42
                                    {
                                        OFFSET  -1.858760   0.000000   0.000000
                                        CHANNELS 3 Zrotation Xrotation Yrotation
                                        End Site
                                        {
                                            OFFSET  -1.818440   0.000000   0.000000
                                        }
                                    }
                                }
                            }
                        }
                    }
                }
            }
        }
    }
    JOINT LeftHip
    {
        OFFSET   9.783030   0.000000   0.000000
        CHANNELS 3 Zrotation Xrotation Yrotation
        JOINT LeftKnee
        {
            OFFSET   0.000063 -41.789100   0.000608
            CHANNELS 3 Zrotation Xrotation Yrotation
            JOINT LeftAnkle
            {
                OFFSET   0.000048 -41.133200  -0.000184
                CHANNELS 3 Zrotation Xrotation Yrotation
                JOINT LeftToe
                {
                    OFFSET   0.000000  -6.358960  14.674500
                    CHANNELS 3 Zrotation Xrotation Yrotation
                    End Site
                    {
                        OFFSET   0.000000   0.000000   3.913200
                    }
                }
            }
        }
    }
    JOINT RightHip
    {
        OFFSET  -9.783030   0.000000   0.000000
        CHANNELS 3 Zrotation Xrotation Yrotation
        JOINT RightKnee
        {
            OFFSET   0.000071 -41.789100   0.001239
            CHANNELS 3 Zrotation Xrotation Yrotation
            JOINT RightAnkle
            {
                OFFSET   0.000037 -41.133200  -0.000166
                CHANNELS 3 Zrotation Xrotation Yrotation
                JOINT RightToe
                {
                    OFFSET   0.000000  -6.358960  14.674500
                    CHANNELS 3 Zrotation Xrotation Yrotation
                    End Site
                    {
                        OFFSET   0.000000   0.000000   3.913200
                    }
                }
            }
        }
    }
}
MOTION
Frames: 4
Frame Time:   0.016667
  0.695121  89.618800  -4.081660  -2.965600  -8.584100  -2.087760   0.850911   5.240000   0.366259   1.678620  10.484800   0.658115   0.982848  -0.858109   0.006930   1.615600  -1.738520   3.785990  -7.000310   0.135606   1.403620 -72.503200  16.440300  -2.463600  -2.648240 -12.432400 -18.343100  17.089800 -12.268400   7.870540  44.357400  38.041600 -68.717800 -28.790500   0.009432   0.005216  -9.388770   0.006620   0.003424 -30.004100   5.962160 -10.197300 -24.984500  -0.000938  -0.003801 -17.489100  -0.000953  -0.003357 -28.281000  -0.768309   1.428500 -34.032700   0.002663  -0.010967 -22.665800   0.000980  -0.009039 -27.976900  -0.760997   1.432410 -31.908500  -0.009110   0.000144 -21.251000   0.000583  -0.001698 -28.244200  -0.767696   1.428850 -42.380700   0.004033   0.001468 -28.225600   0.001556  -0.007345  11.636200   1.262650   6.494310  67.095300  10.933800  -4.405490   1.065420  -7.837350  10.885900 -12.751600 -11.568200   1.572570 -41.033200  35.400400  66.513800  30.635100  -0.001930  -0.004414  10.317500  -0.002605  -0.001760  30.257500   8.552230  14.301400  25.635600  -0.000439   0.005443  17.934300  -0.004327   0.004097  28.167800   3.204170   5.958490  34.536300  -0.001644   0.012119  23.001200  -0.004815   0.001996  27.668800   1.976740   3.765390  30.363800  -0.005731   0.002865  20.222300  -0.000896   0.011382  33.436700   0.573003   0.889799  50.161600  -0.007886   0.001537  33.407600   0.002881   0.004857   1.490840   9.572900   2.387970   1.244590   0.039197   2.072750  -0.472178  -1.879190   1.587650  -0.000000   0.000000   0.000000   4.832400   6.304490  -3.478590  -3.265610   5.877000  -4.682420  -0.529211  -5.718670   0.675370  -0.000000   0.000000   0.000000
  0.695270  89.618800  -4.089000  -2.954140  -8.626960  -2.001170   0.850607   5.242460   0.363525   1.678310  10.489700   0.652604   0.976680  -0.846517   0.006940   1.605450  -1.715270   3.787450  -6.997510   0.143107   1.428860 -72.528000  16.453700  -2.493490  -2.627650 -12.406100 -18.359400  17.148100 -12.246200   7.851690  44.375400  38.063800 -68.730700 -28.790500   0.009418   0.005203  -9.389610   0.006608   0.003410 -30.012500   5.959720 -10.191100 -24.990700  -0.000946  -0.003776 -17.493500  -0.000948  -0.003340 -28.280700  -0.772717   1.436510 -34.056100   0.002694  -0.010968 -22.681400   0.000991  -0.009041 -27.977800  -0.765308   1.440490 -31.918300  -0.009128   0.000253 -21.257500   0.000591  -0.001655 -28.249600  -0.772107   1.436930 -42.389100   0.004072   0.001483 -28.231200   0.001562  -0.007361  11.682800   1.225820   6.538210  67.094900  10.850100  -4.499330   1.005610  -7.744220  10.929000 -12.741400 -11.596800   1.569410 -41.064500  35.449200  66.553900  30.647800  -0.001937  -0.004399  10.323900  -0.002607  -0.001762  30.253100   8.527420  14.271400  25.628000  -0.000457   0.005461  17.934300  -0.004320   0.004108  28.171500   3.187940   5.927850  34.546300  -0.001667   0.012156  23.007900  -0.004813   0.001981  27.671500   1.956240   3.725760  30.376400  -0.005731   0.002842  20.230700  -0.000888   0.011401  33.451200   0.572755   0.884613  50.183300  -0.007890   0.001511  33.422100   0.002891   0.004873   1.494560   9.592550   2.378520   1.253450   0.055787   2.028420  -0.473786  -1.877600   1.554730   0.000000   0.000000  -0.000000   4.862620   6.314600  -3.481090  -3.292440   5.951060  -4.682680  -0.545735  -5.841290   0.608932  -0.000000   0.000000  -0.000000
  0.695680  89.618800  -4.097750  -2.935640  -8.700410  -1.862250   0.850307   5.248310   0.359265   1.678040  10.501400   0.643980   0.964619  -0.829555   0.006966   1.585570  -1.681160   3.797890  -6.994870   0.156204   1.454100 -72.580200  16.467000  -2.534890  -2.555210 -12.347400 -18.402500  17.206400 -12.223900   7.832840  44.393400  38.086100 -68.743700 -28.790900   0.009387   0.005191  -9.395450   0.006582   0.003385 -30.045200   5.942560 -10.147900 -25.015000  -0.000965  -0.003719 -17.510500  -0.000933  -0.003301 -28.279200  -0.801115   1.488450 -34.090700   0.002758  -0.010970 -22.704400   0.001021  -0.009045 -27.981500  -0.793465   1.492580 -31.951900  -0.009168   0.000362 -21.279900   0.000613  -0.001555 -28.268000  -0.800904   1.488730 -42.418400   0.004158   0.001517 -28.250700   0.001578  -0.007395  11.753700   1.159750   6.598570  67.088500  10.766400  -4.593120   0.927508  -7.557990  10.986400 -12.719100 -11.625400   1.546340 -41.083100  35.527100  66.642100  30.680100  -0.001955  -0.004351  10.340000  -0.002622  -0.001764  30.250800   8.503130  14.227000  25.620400  -0.000511   0.005502  17.934300  -0.004301   0.004136  28.177000   3.163050   5.881040  34.556300  -0.001721   0.012243  23.014500  -0.004805   0.001949  27.674200   1.935740   3.686140  30.396400  -0.005731   0.002793  20.244000  -0.000869   0.011447  33.471500   0.572507   0.877261  50.213900  -0.007900   0.001454  33.442400   0.002916   0.004914   1.500800   9.634730   2.362830   1.262370   0.072379   1.958280  -0.477374  -1.870420   1.501760  -0.000000   0.000000   0.000000   4.907970   6.341760  -3.487880  -3.332740   6.060060  -4.683260  -0.566297  -6.014870   0.502091   0.000000   0.000000  -0.000000
  0.696333  89.618700  -4.098880  -2.922470  -8.762380  -1.757350   0.850269   5.254180   0.357818   1.677870  10.513000   0.641040   0.952530  -0.819667   0.007005   1.565730  -1.661060   3.821650  -7.022470   0.163836   1.413940 -72.644400  16.466900  -2.551230  -2.422450 -12.274300 -18.443400  17.207100 -12.283900   7.896490  44.140900  37.868400 -68.597800 -28.876000   0.009347   0.005208  -9.440450   0.006554   0.003362 -30.109600   5.904440 -10.057600 -25.062800  -0.000994  -0.003635 -17.544000  -0.000906  -0.003248 -28.277100  -0.856127   1.588050 -34.111600   0.002845  -0.010965 -22.718300   0.001070  -0.009052 -27.993100  -0.848273   1.592310 -32.037100  -0.009226  -0.000354 -21.336700   0.000645  -0.001409 -28.316000  -0.857255   1.587640 -42.493400   0.004282   0.001563 -28.300600   0.001603  -0.007440  11.802400   1.096950   6.620520  67.083200  10.808200  -4.593160   0.873093  -7.278630  11.001100 -12.678300 -11.621400   1.479320 -41.013600  35.570600  66.815200  30.745500  -0.001981  -0.004260  10.372700  -0.002662  -0.001762  30.303900   8.507800  14.206700  25.663100  -0.000606   0.005561  17.964200  -0.004271   0.004182  28.179200   3.148860   5.854170  34.552500  -0.001800   0.012369  23.011900  -0.004790   0.001905  27.674000   1.937180   3.687950  30.413200  -0.005733   0.002723  20.255100  -0.000843   0.011517  33.480600   0.573129   0.873783  50.227600  -0.007917   0.001376  33.451600   0.002952   0.004977   1.504960   9.687960   2.349510   1.262880   0.057267   1.907890  -0.482363  -1.853110   1.461550   0.000000   0.000000  -0.000000   4.937480   6.386380  -3.502440  -3.359170   6.114270  -4.689780  -0.573641  -6.096110   0.422008  -0.000000   0.000000  -0.000000
